REM DIRINDEX 1\2,1\3
REM DIRNAME cjc039,folder01,folder02
TITLE ""
FILE "1761-1780.mp3" MP3
  TRACK 01 AUDIO
    TITLE "0:"
    INDEX 01 00:00:00
  TRACK 02 AUDIO
    TITLE "2:cjc039_2521"
    INDEX 01 00:00:25
  TRACK 03 AUDIO
    TITLE "0:"
    INDEX 01 00:01:46
  TRACK 04 AUDIO
    TITLE "3:cjc039_2522"
    INDEX 01 00:02:26
  TRACK 05 AUDIO
    TITLE "0:"
    INDEX 01 00:04:70
  TRACK 06 AUDIO
    TITLE "2:cjc039_2523"
    INDEX 01 00:06:47
  TRACK 07 AUDIO
    TITLE "0:"
    INDEX 01 00:08:01
  TRACK 08 AUDIO
    TITLE "3:cjc039_2524"
    INDEX 01 00:08:46
  TRACK 09 AUDIO
    TITLE "0:"
    INDEX 01 00:12:26
  TRACK 10 AUDIO
    TITLE "2:cjc039_2525"
    INDEX 01 00:14:06
  TRACK 11 AUDIO
    TITLE "0:"
    INDEX 01 00:15:21
  TRACK 12 AUDIO
    TITLE "3:cjc039_2526"
    INDEX 01 00:16:02
  TRACK 13 AUDIO
    TITLE "0:"
    INDEX 01 00:18:56
  TRACK 14 AUDIO
    TITLE "2:cjc039_2527"
    INDEX 01 00:20:36
  TRACK 15 AUDIO
    TITLE "0:"
    INDEX 01 00:21:58
  TRACK 16 AUDIO
    TITLE "3:cjc039_2528"
    INDEX 01 00:22:34
  TRACK 17 AUDIO
    TITLE "0:"
    INDEX 01 00:26:07
  TRACK 18 AUDIO
    TITLE "2:cjc039_2529"
    INDEX 01 00:27:59
  TRACK 19 AUDIO
    TITLE "0:"
    INDEX 01 00:28:57
  TRACK 20 AUDIO
    TITLE "3:cjc039_2530"
    INDEX 01 00:29:38
  TRACK 21 AUDIO
    TITLE "0:"
    INDEX 01 00:32:07
  TRACK 22 AUDIO
    TITLE "2:cjc039_2531"
    INDEX 01 00:33:60
  TRACK 23 AUDIO
    TITLE "0:"
    INDEX 01 00:35:08
  TRACK 24 AUDIO
    TITLE "3:cjc039_2532"
    INDEX 01 00:35:63
  TRACK 25 AUDIO
    TITLE "0:"
    INDEX 01 00:39:37
  TRACK 26 AUDIO
    TITLE "2:cjc039_2533"
    INDEX 01 00:41:14
  TRACK 27 AUDIO
    TITLE "0:"
    INDEX 01 00:42:12
  TRACK 28 AUDIO
    TITLE "3:cjc039_2534"
    INDEX 01 00:42:65
  TRACK 29 AUDIO
    TITLE "0:"
    INDEX 01 00:45:53
  TRACK 30 AUDIO
    TITLE "2:cjc039_2535"
    INDEX 01 00:47:30
  TRACK 31 AUDIO
    TITLE "0:"
    INDEX 01 00:48:44
  TRACK 32 AUDIO
    TITLE "3:cjc039_2536"
    INDEX 01 00:49:20
  TRACK 33 AUDIO
    TITLE "0:"
    INDEX 01 00:52:47
  TRACK 34 AUDIO
    TITLE "2:cjc039_2537"
    INDEX 01 00:54:25
  TRACK 35 AUDIO
    TITLE "0:"
    INDEX 01 00:55:36
  TRACK 36 AUDIO
    TITLE "3:cjc039_2538"
    INDEX 01 00:56:20
  TRACK 37 AUDIO
    TITLE "0:"
    INDEX 01 01:00:37
  TRACK 38 AUDIO
    TITLE "2:cjc039_2539"
    INDEX 01 01:02:12
  TRACK 39 AUDIO
    TITLE "0:"
    INDEX 01 01:03:26
  TRACK 40 AUDIO
    TITLE "3:cjc039_2540"
    INDEX 01 01:04:03
  TRACK 41 AUDIO
    TITLE "0:"
    INDEX 01 01:08:21
  TRACK 42 AUDIO
    TITLE "2:cjc039_2541"
    INDEX 01 01:09:71
  TRACK 43 AUDIO
    TITLE "0:"
    INDEX 01 01:11:11
  TRACK 44 AUDIO
    TITLE "3:cjc039_2542"
    INDEX 01 01:11:58
  TRACK 45 AUDIO
    TITLE "0:"
    INDEX 01 01:14:68
  TRACK 46 AUDIO
    TITLE "2:cjc039_2543"
    INDEX 01 01:16:44
  TRACK 47 AUDIO
    TITLE "0:"
    INDEX 01 01:18:06
  TRACK 48 AUDIO
    TITLE "3:cjc039_2544"
    INDEX 01 01:18:53
  TRACK 49 AUDIO
    TITLE "0:"
    INDEX 01 01:22:39
  TRACK 50 AUDIO
    TITLE "2:cjc039_2545"
    INDEX 01 01:24:14
  TRACK 51 AUDIO
    TITLE "0:"
    INDEX 01 01:25:21
  TRACK 52 AUDIO
    TITLE "3:cjc039_2546"
    INDEX 01 01:25:74
  TRACK 53 AUDIO
    TITLE "0:"
    INDEX 01 01:28:45
  TRACK 54 AUDIO
    TITLE "2:cjc039_2547"
    INDEX 01 01:30:18
  TRACK 55 AUDIO
    TITLE "0:"
    INDEX 01 01:31:69
  TRACK 56 AUDIO
    TITLE "3:cjc039_2548"
    INDEX 01 01:32:41
  TRACK 57 AUDIO
    TITLE "0:"
    INDEX 01 01:37:32
  TRACK 58 AUDIO
    TITLE "2:cjc039_2549"
    INDEX 01 01:39:06
  TRACK 59 AUDIO
    TITLE "0:"
    INDEX 01 01:40:23
  TRACK 60 AUDIO
    TITLE "3:cjc039_2550"
    INDEX 01 01:41:01
  TRACK 61 AUDIO
    TITLE "0:"
    INDEX 01 01:44:52
  TRACK 62 AUDIO
    TITLE "2:cjc039_2551"
    INDEX 01 01:46:27
  TRACK 63 AUDIO
    TITLE "0:"
    INDEX 01 01:47:46
  TRACK 64 AUDIO
    TITLE "3:cjc039_2552"
    INDEX 01 01:48:18
  TRACK 65 AUDIO
    TITLE "0:"
    INDEX 01 01:51:64
  TRACK 66 AUDIO
    TITLE "2:cjc039_2553"
    INDEX 01 01:53:41
  TRACK 67 AUDIO
    TITLE "0:"
    INDEX 01 01:54:56
  TRACK 68 AUDIO
    TITLE "3:cjc039_2554"
    INDEX 01 01:55:28
  TRACK 69 AUDIO
    TITLE "0:"
    INDEX 01 01:59:14
  TRACK 70 AUDIO
    TITLE "2:cjc039_2555"
    INDEX 01 02:00:59
  TRACK 71 AUDIO
    TITLE "0:"
    INDEX 01 02:01:60
  TRACK 72 AUDIO
    TITLE "3:cjc039_2556"
    INDEX 01 02:02:30
  TRACK 73 AUDIO
    TITLE "0:"
    INDEX 01 02:04:64
  TRACK 74 AUDIO
    TITLE "2:cjc039_2557"
    INDEX 01 02:06:38
  TRACK 75 AUDIO
    TITLE "0:"
    INDEX 01 02:07:61
  TRACK 76 AUDIO
    TITLE "3:cjc039_2558"
    INDEX 01 02:08:41
  TRACK 77 AUDIO
    TITLE "0:"
    INDEX 01 02:12:03
  TRACK 78 AUDIO
    TITLE "2:cjc039_2559"
    INDEX 01 02:13:57
  TRACK 79 AUDIO
    TITLE "0:"
    INDEX 01 02:15:00
  TRACK 80 AUDIO
    TITLE "3:cjc039_2560"
    INDEX 01 02:15:52
  TRACK 81 AUDIO
    TITLE "0:"
    INDEX 01 02:19:25
